<svg width="10" height="10" viewBox="0 0 10 10" fill="none" xmlns="http://www.w3.org/2000/svg">
<path d="M4.65726 8.15367C4.69549 8.20919 4.74663 8.25458 4.8063 8.28594C4.86596 8.3173 4.93236 8.33368 4.99976 8.33368C5.06716 8.33368 5.13356 8.3173 5.19322 8.28594C5.25289 8.25458 5.30403 8.20919 5.34226 8.15367L9.09226 2.737C9.13567 2.67453 9.16112 2.60135 9.16586 2.52542C9.17059 2.44949 9.15443 2.37372 9.11913 2.30633C9.08382 2.23895 9.03073 2.18252 8.96561 2.14319C8.90049 2.10386 8.82583 2.08313 8.74976 2.08325L1.24976 2.08325C1.17386 2.08357 1.09948 2.10456 1.03463 2.14399C0.96977 2.18341 0.916886 2.23977 0.881664 2.307C0.846441 2.37423 0.830212 2.44979 0.834722 2.52556C0.839232 2.60132 0.86431 2.67442 0.90726 2.737L4.65726 8.15367Z" fill="white"/>
</svg>
