<svg width="36" height="36" viewBox="0 0 36 36" fill="none" xmlns="http://www.w3.org/2000/svg">
<path d="M23.205 4.665C22.5 4.275 21.555 4.575 21.165 5.31C21.06 5.52 21 5.76 21 6V9.885L19.935 8.82C19.7967 8.68241 19.687 8.51877 19.6124 8.33855C19.5377 8.15832 19.4995 7.96508 19.5 7.77V1.5H16.5V7.755C16.5 8.16 16.35 8.535 16.065 8.82L15 9.885V6C15 5.16 14.31 4.5 13.5 4.5C13.245 4.5 13.005 4.56 12.795 4.665C7.08 7.5 3 14.955 3 23.655C3 26.505 3.495 29.325 4.5 31.98C4.57229 32.1881 4.68923 32.3779 4.84261 32.536C4.99599 32.6941 5.18211 32.8168 5.38791 32.8954C5.59371 32.974 5.81422 33.0067 6.03397 32.991C6.25371 32.9754 6.46739 32.9119 6.66 32.805L14.25 28.605C14.715 28.35 15 27.84 15 27.285V14.115L16.95 12.18C17.0888 12.0409 17.2536 11.9306 17.4351 11.8554C17.6165 11.7801 17.811 11.7413 18.0075 11.7413C18.204 11.7413 18.3985 11.7801 18.5799 11.8554C18.7614 11.9306 18.9262 12.0409 19.065 12.18L21 14.13V27.3C21 27.84 21.315 28.35 21.75 28.62L29.37 32.82C29.545 32.9139 29.737 32.9721 29.9347 32.9912C30.1324 33.0103 30.3319 32.99 30.5217 32.9314C30.7115 32.8728 30.8877 32.7771 31.0402 32.6498C31.1927 32.5225 31.3184 32.3662 31.41 32.19C31.44 32.13 31.5 32.055 31.5 31.98C32.505 29.325 33 26.505 33 23.655C33 14.955 28.935 7.5 23.205 4.665Z" fill="white"/>
</svg>
