<svg width="36" height="36" viewBox="0 0 512 512" fill="white" xmlns="http://www.w3.org/2000/svg">
	<path d="M271.003 15c0-8.284-6.716-15-15.001-15s-15.001 6.716-15.001 15v31.777c0 8.284 6.716 15 15.001 15s15.001-6.716 15.001-15zM368.875 67.841l22.471-22.47c5.859-5.858 5.859-15.355 0-21.213-5.858-5.858-15.357-5.858-21.214 0l-22.471 22.47c-5.859 5.858-5.859 15.355 0 21.213 5.857 5.857 15.356 5.858 21.214 0zM143.13 67.841c5.857 5.858 15.356 5.859 21.214 0 5.859-5.858 5.859-15.355 0-21.213l-22.471-22.47c-5.858-5.858-15.357-5.858-21.215 0-5.859 5.858-5.859 15.355 0 21.213zM501.554 97.048l-20.382-6.471 24.471-18.541c6.603-5.003 7.9-14.412 2.896-21.014-5.002-6.602-14.41-7.901-21.016-2.896l-47.552 36.03c-9.69 7.342-7.042 22.581 4.521 26.252l20.38 6.47-24.459 18.53c-6.603 5.003-7.901 14.411-2.898 21.014 5.004 6.605 14.413 7.899 21.016 2.897.873-.661 46.792-35.445 47.654-36.112 9.518-7.343 6.917-22.447-4.631-26.159zM74.491 156.423c5.003-6.603 3.705-16.012-2.898-21.014l-24.459-18.53 20.38-6.47a15 15 0 0 0 4.521-26.252l-47.552-36.03c-6.604-5.003-16.015-3.706-21.016 2.896-5.004 6.602-3.707 16.011 2.896 21.014l24.471 18.541c-.32.102-20.3 6.443-20.619 6.549-10.739 3.597-13.81 17.567-5.341 25.285.34.31.856.736 1.058.889l47.544 36.019c6.607 5.006 16.014 3.702 21.015-2.897zM154.675 136.559c32.112 1.88 51.814 7.55 53.414 8.02 7.941 2.35 12.471 10.7 10.121 18.64-2.35 7.93-10.681 12.46-18.611 10.13-.52-.15-33.493-9.46-84.236-6.78-17.272 20.272-22.984 47.739-15.421 72.899-31.39 31.781-35.73 80.175-13.591 116.399 4.89-6.66 9.971-12.39 14.891-17.27 18.111-17.96 36.913-27.44 45.663-31.22-1.92-16.24 1.07-29.04 1.32-30.05 1.97-8.05 10.081-12.98 18.131-11.02 8.021 1.96 12.951 10.03 11.041 18.06-.32 1.37-6.781 30.73 14.001 48.28 6.33 5.34 7.141 14.8 1.79 21.13-5.359 6.351-14.818 7.126-21.142 1.79-7.051-5.95-12.241-12.57-16.051-19.38-7.501 3.56-21.322 11.24-34.503 24.59-11.641 11.78-20.352 25.33-26.092 40.54 7.251 33.4 34.993 59.229 69.345 63.639 11.066 30.877 42.274 50.794 76.256 46.45V274.178c-14.111-28.97-40.333-36.86-40.593-36.93-7.991-2.19-12.701-10.43-10.521-18.43 2.18-7.99 10.431-12.69 18.421-10.51 1.04.28 16.411 4.65 32.692 18.2V83.399a70.942 70.942 0 0 0-16.931-2.04c-33.762 0-62.114 23.62-69.394 55.2zM434.386 275.528c-43.653-40.14-90.227-40.88-90.827-40.89-8.281-.02-14.971-6.76-14.951-15.05.03-8.26 6.741-14.95 15.001-14.95h.05c16.881.167 44.912 6.475 71.265 20.53 3.941-38.817-20.699-73.209-56.544-83.059-5.07-34.32-34.733-60.749-70.445-60.749-5.76 0-11.431.69-16.931 2.04v221.558c10.211-7.63 23.142-13.45 38.763-13.28 8.291.09 14.931 6.88 14.841 15.16-.09 8.23-6.78 14.84-14.991 14.84h-.47c-19.892 0-33.773 20.61-38.143 28.09v161.639c34.047 4.353 65.208-15.623 76.256-46.45 45.999-5.907 78.974-49.774 69.625-96.969 22.717-26.707 27.845-62.233 17.501-92.46zm-73.366 80.309c-7.221 38.02-45.713 49.25-47.354 49.71 0 0-12.931 3.65-18.251-9.62-3.63-15.4 10.031-19.23 10.031-19.23l.09-.03h.01c1.82-.56 22.372-7.3 26.002-26.43 1.55-8.14 9.401-13.48 17.541-11.94 8.141 1.55 13.481 9.4 11.931 17.54z"/>
</svg>