<svg width="36" height="36" viewBox="0 0 512 512" fill="none" xmlns="http://www.w3.org/2000/svg">
<path d="M368 248c0-17.856-9.888-33.28-24.352-41.536C357.472 202.944 368 190.912 368 176a29.59 29.59 0 0 0-3.488-13.984c-8.096-28.128-26.304-51.552-50.528-66.016H198.016c-24.256 14.464-42.432 37.888-50.56 66.016A30.145 30.145 0 0 0 144 176c0 14.88 10.528 26.912 24.352 30.432C153.888 214.72 144 230.144 144 248c0 17.888 9.888 33.28 24.384 41.568C154.496 293.056 144 305.056 144 320v160c0 17.664 14.336 32 32 32h160c17.664 0 32-14.336 32-32V320c0-14.976-10.496-26.976-24.384-30.464C358.112 281.28 368 265.888 368 248zM304 0h-96c-8.832 0-16 7.168-16 16v32c0 8.832 7.168 16 16 16h96c8.832 0 16-7.168 16-16V16c0-8.832-7.168-16-16-16z" fill="white"/>
</svg>
