<?xml version="1.0" encoding="utf-8"?>
<!-- Svg Vector Icons : http://www.onlinewebfonts.com/icon -->
<!DOCTYPE svg PUBLIC "-//W3C//DTD SVG 1.1//EN" "http://www.w3.org/Graphics/SVG/1.1/DTD/svg11.dtd">
<svg version="1.1" xmlns="http://www.w3.org/2000/svg" xmlns:xlink="http://www.w3.org/1999/xlink" x="0px" y="0px" viewBox="0 0 1000 1000" enable-background="new 0 0 1000 1000" xml:space="preserve">
  <metadata> Svg Vector Icons : http://www.onlinewebfonts.com/icon </metadata>
  <g>
    <g fill="#ffffff" transform="translate(0.000000,511.000000) scale(0.100000,-0.100000)">
      <path d="M3654.3,3762.8c-70.9-30.6-159-130.2-174.3-195.4c-23-93.8,3.8-218.3,61.3-279.6c93.9-99.6,145.6-111.1,515.2-111.1h335.2v-153.2v-153.2h-942.3c-884.9,0-950-3.8-1024.7-36.4c-44-21.1-95.8-61.3-114.9-90c-19.2-28.7-95.8-233.7-170.5-455.8l-136-400.3l-400.3-136c-222.2-74.7-427.1-151.3-455.8-170.5c-28.7-19.2-68.9-70.9-90-114.9c-32.5-74.7-36.4-134.1-36.4-716.3V112.2H714.3H407.9v718.2v720.2l-47.9,46c-76.6,76.6-183.9,57.5-235.6-42.1c-32.6-59.4-32.6-1905.7,0-1965.1c32.5-63.2,76.6-90,139.8-88.1c32.6,1.9,76.6,1.9,99.6,0l42.1-1.9l5.8-883l5.7-882.9l46-36.4c61.3-49.8,147.5-46,203,11.5l47.9,46v873.4v871.5h153.2h153.2v-488.4c0-279.6,9.6-528.6,21.1-588c72.8-352.4,388.8-668.4,741.2-741.2c57.5-11.5,296.9-21.1,545.9-21.1h444.4l909.8-607.2l909.8-609.1l1608.9-5.7l1608.8-3.8l86.2,42.1c63.2,32.6,97.7,67,130.2,130.2c40.2,80.4,42.1,105.3,42.1,568.8v484.6h306.4H8682v-335.2c0-373.5,11.5-427.1,113-511.4c84.3-72.8,204.9-86.2,314.1-38.3c97.7,44,159,128.3,331.3,453.9c657,1254.5,607.2,2717.8-134.1,3867c-91.9,141.7-120.7,172.4-197.3,206.9c-109.2,47.9-214.5,36.4-308.3-36.4c-105.3-80.4-118.8-136-118.8-513.3V418.7h-306.4h-306.4v484.6c0,463.5-1.9,488.4-42.1,568.8c-32.6,63.2-67,97.7-130.2,130.2c-82.4,40.2-99.6,42.1-722.1,42.1h-637.8V2129c0,463.5-1.9,488.4-42.1,568.8c-32.6,63.2-67,97.7-130.2,130.2c-82.4,40.2-99.6,42.1-722.1,42.1h-637.8v153.2v153.2h337.1c377.3,0,430.9,13.4,519.1,126.4c101.5,134.1,70.8,319.8-67,425.2l-67,51.7l-1007.5,3.8C3909.1,3787.7,3700.3,3783.9,3654.3,3762.8z" />
    </g>
  </g>
</svg>