<svg width="36" height="36" viewBox="0 0 512.002 512.002" fill="none" xmlns="http://www.w3.org/2000/svg">
<path d="M376.622 154.081h-.001c-28.393-4.583-56.763 2.621-79.874 20.28-23.989 18.331-57.502 18.331-81.493 0-18.567-14.188-40.528-21.627-63.171-21.627-5.54 0-11.121.445-16.703 1.346-58.164 9.383-98.03 65.865-88.867 125.908C63.181 389.21 94.771 463.541 137.87 494.947c20.154 14.684 42.426 19.806 68.095 15.668 15.731-2.538 28.157-8.946 37.991-19.592a16.395 16.395 0 0 1 24.088 0c9.833 10.646 22.26 17.054 37.991 19.592 25.669 4.144 47.943-.983 68.095-15.668 43.1-31.406 74.689-105.737 91.357-214.959 9.163-60.042-30.702-116.524-88.865-125.907z M377.045 49.397c-3.265-8.445-12.756-12.648-21.207-9.381-2.584.999-43.204 17.15-75.284 54.855-1.202-5.935-2.881-11.91-5.154-17.832-19.089-49.727-71.527-74.49-73.75-75.521a16.397 16.397 0 0 0-21.97 8.434c-.963 2.254-23.362 55.745-4.274 105.472 1.724 4.489 3.738 8.755 5.943 12.838 19.234 4.258 37.528 12.739 53.817 25.185 12.266 9.375 29.404 9.375 41.672 0a142.685 142.685 0 0 1 8.838-6.237c8.529-18.735 21.859-35.685 39.906-50.623 21.507-17.803 41.916-25.918 42.082-25.983 8.446-3.266 12.647-12.76 9.381-21.207z" fill="white"/>
</svg>
