<svg width="36" height="36" viewBox="0 0 36 36" fill="none" xmlns="http://www.w3.org/2000/svg">
<path d="M29.655 10.845L29.67 10.83L24.885 6.045C24.6733 5.83578 24.3876 5.71845 24.09 5.71845C23.7924 5.71845 23.5067 5.83578 23.295 6.045C22.86 6.48 22.86 7.2 23.295 7.635L25.665 10.005C24.09 10.605 23.025 12.21 23.295 14.07C23.535 15.72 24.945 17.055 26.595 17.235C27.3 17.31 27.915 17.19 28.5 16.935V27.75C28.5 28.575 27.825 29.25 27 29.25C26.175 29.25 25.5 28.575 25.5 27.75V21C25.5 19.35 24.15 18 22.5 18H21V7.5C21 5.85 19.65 4.5 18 4.5H9C7.35 4.5 6 5.85 6 7.5V30C6 30.825 6.675 31.5 7.5 31.5H19.5C20.325 31.5 21 30.825 21 30V20.25H23.25V27.54C23.25 29.505 24.66 31.29 26.61 31.485C27.133 31.5397 27.6616 31.4838 28.1615 31.3209C28.6614 31.1581 29.1216 30.8919 29.512 30.5397C29.9024 30.1875 30.2143 29.7571 30.4276 29.2765C30.6409 28.7959 30.7507 28.2758 30.75 27.75V13.5C30.75 12.465 30.33 11.52 29.655 10.845ZM18 15H9V9C9 8.175 9.675 7.5 10.5 7.5H16.5C17.325 7.5 18 8.175 18 9V15ZM27 15C26.175 15 25.5 14.325 25.5 13.5C25.5 12.675 26.175 12 27 12C27.825 12 28.5 12.675 28.5 13.5C28.5 14.325 27.825 15 27 15Z" fill="white"/>
</svg>
