<svg width="36" height="36" viewBox="0 0 36 36" fill="none" xmlns="http://www.w3.org/2000/svg">
<path d="M18 3C18.7957 3 19.5587 3.31607 20.1213 3.87868C20.6839 4.44129 21 5.20435 21 6C21 7.665 19.665 9 18 9C17.2044 9 16.4413 8.68393 15.8787 8.12132C15.3161 7.55871 15 6.79565 15 6C15 5.20435 15.3161 4.44129 15.8787 3.87868C16.4413 3.31607 17.2044 3 18 3ZM18.585 22.185C20.7158 22.1767 22.8449 22.3019 24.96 22.56C25.05 18.48 24.69 14.88 24 13.5C23.805 13.095 23.535 12.75 23.25 12.45L11.145 22.83C13.185 22.5 15.75 22.185 18.585 22.185V22.185ZM11.19 25.5C11.385 28.11 11.775 30.75 12.405 33H15.51C15.075 31.68 14.76 30.135 14.52 28.5C14.52 28.5 18 27.84 21.48 28.5C21.24 30.135 20.925 31.68 20.49 33H23.595C24.255 30.675 24.645 27.915 24.84 25.185C22.7645 24.9341 20.6757 24.8088 18.585 24.81C15.69 24.81 13.17 25.125 11.19 25.5V25.5ZM18 10.5C18 10.5 13.5 10.5 12 13.5C11.49 14.52 11.16 16.725 11.055 19.44L20.88 11.01C19.395 10.5 18 10.5 18 10.5ZM27.855 8.505L26.145 6.51L20.88 11.025C21.705 11.31 22.575 11.76 23.25 12.45L27.855 8.505V8.505ZM31.005 23.745C30.87 23.7 28.71 22.995 24.96 22.56C24.945 23.415 24.9 24.3 24.84 25.185C28.215 25.605 30.15 26.25 30.18 26.25L31.005 23.745V23.745ZM11.055 19.44L5.14502 24.51L6.48002 26.73C6.51002 26.715 8.25002 26.04 11.19 25.5C11.025 23.385 10.98 21.3 11.055 19.44Z" fill="#ff0000"/>
</svg>
