<svg width="36" height="36" viewBox="0 0 36 36" fill="none" xmlns="http://www.w3.org/2000/svg">
<path d="M18 23.625C21.0125 23.625 23.4545 21.1066 23.4545 18V8.625C23.4545 5.51836 21.0125 3 18 3C14.9875 3 12.5455 5.51836 12.5455 8.625V18C12.5455 21.1066 14.9875 23.625 18 23.625ZM27.0909 14.25H26.1818C25.6795 14.25 25.2727 14.6695 25.2727 15.1875V18C25.2727 22.3828 21.6085 25.8996 17.2733 25.4637C13.4949 25.0834 10.7273 21.5807 10.7273 17.666V15.1875C10.7273 14.6695 10.3205 14.25 9.81818 14.25H8.90909C8.40682 14.25 8 14.6695 8 15.1875V17.5406C8 22.793 11.6347 27.4752 16.6364 28.1865V30.1875H13.4545C12.9523 30.1875 12.5455 30.607 12.5455 31.125V32.0625C12.5455 32.5805 12.9523 33 13.4545 33H22.5455C23.0477 33 23.4545 32.5805 23.4545 32.0625V31.125C23.4545 30.607 23.0477 30.1875 22.5455 30.1875H19.3636V28.2088C24.2335 27.5197 28 23.209 28 18V15.1875C28 14.6695 27.5932 14.25 27.0909 14.25Z" fill="white"/>
</svg>
