<svg width="36" height="36" viewBox="0 0 36 36" fill="none" xmlns="http://www.w3.org/2000/svg">
<path d="M22.875 9.75C23.7701 9.75 24.6285 9.39442 25.2615 8.76149C25.8944 8.12855 26.25 7.27011 26.25 6.375C26.25 5.47989 25.8944 4.62145 25.2615 3.98851C24.6285 3.35558 23.7701 3 22.875 3C21.9799 3 21.1215 3.35558 20.4885 3.98851C19.8556 4.62145 19.5 5.47989 19.5 6.375C19.5 7.27011 19.8556 8.12855 20.4885 8.76149C21.1215 9.39442 21.9799 9.75 22.875 9.75V9.75Z" fill="white"/>
<path d="M16.0951 12.9616C15.1598 13.1941 14.5216 13.5436 14.0063 13.9771C13.2338 14.6281 12.6098 15.5671 11.7668 17.0431C11.5694 17.3885 11.2429 17.6413 10.859 17.746C10.4752 17.8506 10.0655 17.7985 9.72008 17.6011C9.37466 17.4036 9.12183 17.0771 9.01718 16.6933C8.91253 16.3094 8.96466 15.8997 9.16208 15.5543C10.0013 14.0866 10.8496 12.7133 12.0743 11.6828C13.3523 10.6058 14.9168 9.99681 17.0266 9.76206C17.9086 9.66456 18.8791 9.68406 19.7888 10.0898C20.7436 10.5166 21.4411 11.2808 21.9166 12.3023C22.5571 13.6771 23.0333 14.4953 23.4143 14.9693C23.5981 15.1973 23.7263 15.3031 23.7991 15.3503C23.8568 15.3878 23.8816 15.3908 23.8906 15.3923H23.8913C23.9566 15.3998 24.1681 15.3923 24.7891 15.1171C25.0598 14.9971 25.3553 14.8531 25.7168 14.6768L25.8031 14.6348C26.2452 14.4166 26.6913 14.2066 27.1411 14.0048C27.5042 13.8454 27.9157 13.8363 28.2856 13.9795C28.6555 14.1227 28.9536 14.4065 29.1147 14.7689C29.2758 15.1313 29.2868 15.5428 29.1454 15.9133C29.0039 16.2838 28.7215 16.5832 28.3598 16.7461C27.943 16.9331 27.5297 17.1279 27.1201 17.3303L27.0218 17.3783C26.6761 17.5471 26.3281 17.7173 26.0018 17.8613C25.3268 18.1598 24.4643 18.4838 23.5291 18.3706C22.5421 18.2506 21.7816 17.6933 21.1553 16.9456L19.1056 20.9003L21.9406 24.5888C22.1093 24.8093 22.2136 25.0718 22.2428 25.3478L22.8668 31.3448C22.8906 31.5424 22.8748 31.7427 22.8204 31.9342C22.766 32.1256 22.674 32.3043 22.5499 32.4598C22.4257 32.6153 22.2719 32.7446 22.0972 32.8401C21.9226 32.9356 21.7308 32.9953 21.5328 33.0159C21.3349 33.0365 21.1348 33.0176 20.9443 32.9601C20.7538 32.9026 20.5766 32.8078 20.4231 32.6811C20.2696 32.5545 20.1428 32.3986 20.0501 32.2225C19.9574 32.0464 19.9007 31.8536 19.8833 31.6553L19.3028 26.0806L17.5808 23.8396L17.5658 23.8673L17.5028 23.7383L14.3213 19.5983C14.1649 19.3948 14.0634 19.1546 14.0263 18.9007C13.9893 18.6467 14.018 18.3875 14.1098 18.1478L16.0951 12.9616V12.9616Z" fill="white"/>
<path d="M13.8241 21.7551L12.7201 24.7251L8.37014 24.3801C8.17237 24.3618 7.97292 24.3829 7.78336 24.4422C7.59381 24.5015 7.41792 24.5979 7.26592 24.7258C7.11391 24.8536 6.98881 25.0104 6.89788 25.187C6.80694 25.3636 6.75199 25.5564 6.73619 25.7544C6.7204 25.9524 6.74409 26.1516 6.80588 26.3404C6.86768 26.5291 6.96635 26.7038 7.09616 26.8541C7.22598 27.0044 7.38436 27.1275 7.56212 27.2161C7.73987 27.3047 7.93346 27.3572 8.13164 27.3704L13.6126 27.8054C13.9379 27.8313 14.2628 27.7504 14.5379 27.575C14.8131 27.3995 15.0236 27.1392 15.1374 26.8334L15.9811 24.5624L13.8241 21.7551Z" fill="white"/>
</svg>
